# xmcd
#
# Track frame offsets:
#	150
#	13712
#	25977
#	38007
#	51542
#	62757
#	76342
#	90890
#	104415
#	114420
#	129080
#	142517
#	156600
#	171240
#
# Disc length: 2449 seconds
#
# Revision: 2
# Processed by: cddbd v1.5.1PL0 Copyright (c) Steve Scherf et al.
# Submitted via: audiograbber 1.83.01
#
DISCID=ab098f0e
DTITLE=Johnny Roriquez and Belinda B - If You Could See Us Now
DYEAR=2004
DGENRE=Country
TTITLE0=My Last Second Chance
TTITLE1=Lovin' Arms
TTITLE2=Rodeo Rider
TTITLE3=Untill I Feel The Baby Move
TTITLE4=I Can't help It 
TTITLE5=The Wind Beneath My Wings
TTITLE6=Hello Love Goodbye
TTITLE7=Whiskey If You Were A Woman
TTITLE8=Dance With Me
TTITLE9=Cowboy
TTITLE10=Move It On Over
TTITLE11=I Hate The Way I Love It
TTITLE12=Blue O'Clock In The Morning
TTITLE13=America Is You And Me
EXTD=
EXTT0=
EXTT1=
EXTT2=
EXTT3=
EXTT4=
EXTT5=
EXTT6=
EXTT7=
EXTT8=
EXTT9=
EXTT10=
EXTT11=
EXTT12=
EXTT13=
PLAYORDER=
